<?xml version="1.0" encoding="utf-8"?>
<svg xmlns="http://www.w3.org/2000/svg" viewBox="0 0 500 500">
  <path opacity="1.000000" stroke="#000000" stroke-linecap="round" stroke-linejoin="round" stroke-width="10.000000" d="M 138.299 433.561 C 131.133 432.83 133.94 432.512 131.105 432.944 C 120.101 434.623 120.083 434.517 120.073 445.902 C 120.065 451.731 120.137 457.56 120.051 463.387 C 119.971 469.074 122.667 471.824 128.354 471.675 C 129.889 471.634 131.425 471.67 132.959 471.67 C 205.989 471.67 279.018 471.594 352.048 471.747 C 363.593 471.77 365.416 470.33 364.974 458.784 C 364.751 452.964 364.871 447.127 364.953 441.3 C 365.032 435.613 362.266 433.493 356.666 432.867 C 348.319 431.936 340.085 432.849 331.796 432.884 C 272.268 433.134 200.622 433.57 141.095 433.57" style="fill: rgb(255, 255, 255);"/>
  <path opacity="1.000000" stroke="#000000" stroke-linecap="round" stroke-linejoin="round" stroke-width="9.000000" d="M 335.478 332.708 C 346.009 322.98 355.826 312.773 362.235 299.608 C 376.745 269.802 370.272 241.543 354.556 215.065 C 338.635 188.249 318.991 163.87 299.566 139.462 C 281.681 116.985 262.54 95.61 242.556 74.137 C 219.087 99.027 196.806 124.059 176.354 150.595 C 160.664 170.952 145.507 191.788 131.334 213.218 C 121.2 228.535 115.022 246.146 114.805 264.613 C 114.488 291.63 126.228 313.429 147.617 330.038 C 148.545 330.757 148.948 331.878 150.447 331.811 C 203.828 329.444 257.234 331.64 310.623 330.838 C 316.15 330.756 321.346 330.844 326.87 330.608" style="fill: rgb(255, 255, 255);"/>
  <path opacity="1.000000" stroke="#000000" stroke-linecap="round" stroke-linejoin="round" stroke-width="10.000000" d="M 244.344 75.034 C 249.56 70.433 255.261 66.267 259.889 61.137 C 268.519 51.566 267.244 40.174 257.232 30.861 C 247.632 21.932 236.441 22.271 226.854 31.781 C 217.339 41.218 216.842 52.667 225.999 62.086 C 230.532 66.748 235.752 70.739 240.661 75.034" style="fill: rgb(255, 255, 255);"/>
  <path opacity="1.000000" stroke="#000000" stroke-linecap="round" stroke-linejoin="round" stroke-width="10.000000" d="M 149.527 332.376 C 148.3 338.685 147.186 350.11 146.584 356.476 C 144.21 381.687 141.228 404.673 139.077 429.905 C 138.437 437.41 198.39 433.408 224.012 433.239 C 305.663 432.701 345.797 430.302 345.797 430.302 L 335.79 331.313 L 149.527 332.376 Z" style="fill: rgb(255, 255, 255);"/>
  <path opacity="1.000000" stroke="#000000" stroke-linecap="round" stroke-linejoin="round" stroke-width="10.000000" d="M 223.171 383.324 C 224.501 396.167 232.415 402.759 245.265 401.729 C 255.764 400.887 262.278 392.202 261.834 379.643 C 261.544 371.511 250.757 361.237 242.502 361.237 C 233.029 361.237 223.281 371.914 223.171 382.403" style="fill: rgb(255, 255, 255);"/>
  <path opacity="1.000000" stroke="#000000" stroke-linecap="round" stroke-linejoin="round" stroke-width="11.000000" d="M 242.502 194.669 C 244.399 221.664 242.351 248.658 242.502 275.653" style="fill: rgb(255, 255, 255);"/>
  <path opacity="1.000000" stroke="#000000" stroke-linecap="round" stroke-linejoin="round" stroke-width="11.000000" d="M 270.118 227.799 C 251.708 227.799 233.297 227.799 214.887 227.799" style="fill: rgb(255, 255, 255);"/>
</svg>