<?xml version="1.0" encoding="utf-8"?>
<svg xmlns="http://www.w3.org/2000/svg" viewBox="0 0 500 500">
  <path opacity="1.000000" stroke="#000000" stroke-linecap="round" stroke-linejoin="round" stroke-width="10.000000" d="M 118.353 438.423 C 113.484 440.344 108.526 441.605 102.981 441.263 C 96.223 440.843 93.019 443.816 93.083 449.539 C 93.179 458.189 93.179 466.836 93.083 475.484 C 93.019 481.209 96.205 483.977 102.985 483.828 C 104.814 483.788 106.645 483.822 108.474 483.822 C 207.265 483.822 306.055 483.755 404.844 483.899 C 418.611 483.921 420.75 482.475 420.267 470.849 C 419.972 463.755 420.138 456.642 420.236 449.539 C 420.315 443.816 417.024 441.697 410.355 441.052 C 399.666 440.014 389.118 440.997 378.5 441.036 C 297.276 441.339 216.045 441.201 134.818 441.201 C 129.461 441.201 123.983 441.677 119.451 438.423" style="fill: rgb(255, 255, 255);"/>
  <path opacity="1.000000" stroke="#000000" stroke-linecap="round" stroke-linejoin="round" stroke-width="10.000000" d="M 253.366 285.545 C 254.572 278.255 250.939 272.965 246.17 266.749 C 237.167 255.008 230.991 241.713 223.742 229.024 C 210.55 205.935 193.589 185.152 173.522 165.813 C 159.773 152.563 142.912 144.337 123.751 140.396 C 91.84 133.835 55.073 146.212 41.74 172.588 C 34.351 187.209 37.286 202.323 43.683 216.991 C 53.531 239.576 69.066 259.292 87.868 277.017 C 95.798 284.492 99.686 291.592 96.442 301.306 C 94.005 308.602 95.456 316.134 95.554 323.531 C 95.587 326.135 96.145 330.43 100.804 330.843 C 111.374 331.783 122.015 332.594 132.623 332.567 C 136.148 332.557 139.925 331.893 143.6 331.893 C 218.975 331.863 294.347 331.743 369.719 332.026 C 379.605 332.065 389.412 332.891 399.379 332.046 C 407.516 331.354 411.862 328.625 411.374 321.683 C 410.679 311.8 412.856 301.897 409.512 291.965 C 407.563 286.182 413.714 282.233 417.963 278.094 C 438.13 258.459 456.489 237.645 465.033 212.304 C 477.677 174.809 461.53 152.692 419.044 141.194 C 396.566 135.112 375.359 140.092 355.399 150.2 C 333.518 161.278 319.857 178.548 306.147 195.724 C 289.974 215.989 276.292 237.382 266.242 260.435 C 264.226 265.057 259.956 269.607 254.464 272.573" style="fill: rgb(255, 255, 255);"/>
  <path opacity="1.000000" stroke="#000000" stroke-linecap="round" stroke-linejoin="round" stroke-width="10.000000" d="M 407.04 291.104 C 360.938 291.104 314.836 291.104 268.734 291.104 C 256.659 284.706 244.587 291.161 232.51 291.139 C 188.239 291.051 143.967 291.104 99.692 291.104 C 91.746 296.605 94.359 333.285 98.089 330.703 C 95.679 330.892 367.122 334.137 406.493 331.049 C 411.184 335.427 415.925 299.396 407.04 291.104 Z" style="fill: rgb(255, 255, 255);"/>
  <path opacity="1.000000" stroke="#000000" stroke-linecap="round" stroke-linejoin="round" stroke-width="10.000000" d="M 128.232 330.8 C 127.11 364.924 120.722 406.189 118.353 440.226 L 396.278 440.326 L 385.015 332.476 L 128.232 330.8 Z" style="fill: rgb(255, 255, 255);"/>
  <path opacity="1.000000" stroke="#000000" stroke-linecap="round" stroke-linejoin="round" stroke-width="10.000000" d="M 385.086 335.578 C 385.979 369.717 392.742 403.449 394.965 437.496" style="fill: rgb(255, 255, 255);"/>
  <path opacity="1.000000" stroke="#000000" stroke-linecap="round" stroke-linejoin="round" stroke-width="9.000000" d="M 297.548 205.626 C 299.947 203.494 279.14 236.174 267.67 257.798 C 261.771 268.918 253.484 273.569 252.124 274.778 C 253.124 276.112 229.647 235.202 213.82 214.1 C 217.767 212.82 171.628 158.761 165.553 156.293 C 159.478 153.825 186.948 123.2 203.974 110.434 C 214.452 102.577 226.467 97.699 240.119 94.452 C 265.509 88.416 284.538 98.443 302.647 110.553 C 320.575 122.54 331.215 139.311 341.18 156.293 L 297.548 205.626 Z" style="fill: rgb(255, 255, 255);"/>
  <path opacity="1.000000" stroke="#000000" stroke-linecap="round" stroke-linejoin="round" stroke-width="10.000000" d="M 253.366 14.999 C 253.366 40.015 253.366 65.03 253.366 90.048" style="fill: rgb(255, 255, 255);"/>
  <path opacity="1.000000" stroke="#000000" stroke-linecap="round" stroke-linejoin="round" stroke-width="10.000000" d="M 281.906 42.795 C 262.881 42.795 243.854 42.795 224.827 42.795" style="fill: rgb(255, 255, 255);"/>
</svg>