<?xml version="1.0" encoding="utf-8"?>
<svg xmlns="http://www.w3.org/2000/svg" viewBox="0 0 500 500">
  <path opacity="1.000000" stroke-linecap="round" stroke-linejoin="round" stroke-width="10.000000" d="M 369.262 356.363 C 380.441 357.103 388.229 349.529 397.231 344.963 C 400.625 343.241 400.388 339.961 400.387 336.726 C 400.345 277.127 400.325 217.527 400.43 157.926 C 400.435 154.289 399.615 151.256 397.24 148.632 C 363.768 111.646 333.352 71.975 298.678 36.075 C 272.573 9.047 235.787 6.732 203.479 24.681 C 199.085 27.122 195.165 30.508 194.108 35.971" style="stroke: rgb(255, 255, 255);"/>
  <path opacity="1.000000" stroke-linecap="round" stroke-linejoin="round" stroke-width="10.000000" d="M 350.607 443.179 C 350.93 436.082 353.571 429.461 357.024 423.658 C 363.415 412.923 365.803 401.833 365.338 389.426 C 364.966 379.445 362.851 368.926 368.363 359.542 C 369.495 357.615 368.924 356.641 368.207 355.34 C 363.112 346.111 365.241 336.081 365.204 326.39 C 365.018 276.093 364.939 225.794 365.307 175.499 C 365.364 167.843 363.656 161.522 358.886 155.87 C 333.002 125.187 307.511 94.16 280.997 64.026 C 266.28 47.298 246.814 41.645 225.281 48.623 C 214.501 52.115 205.838 50.701 199.511 42.012 C 195.11 35.966 189.758 35.811 183.746 36.004 C 170.982 36.41 157.956 33.799 147.22 46.061 C 150.92 56.94 159.808 61.903 166.187 68.988 C 174.503 78.226 174.837 79.773 166.097 88.655 C 140.264 114.911 114.225 140.969 88.436 167.268 C 78.782 177.111 78.054 193.276 86.337 204.423 C 93.358 213.869 101.828 222.011 110.148 230.285 C 115.728 235.828 121.069 235.722 126.774 230.306 C 135.979 221.567 145.773 213.411 154.586 204.301 C 160.022 198.682 165.907 196.872 173.383 197.102 C 185.71 197.479 197.763 197.11 209.81 192.428 C 213.273 191.083 217.568 188.436 221.37 185.832 C 226.549 182.285 230.812 178.815 231.634 179.74 C 232.456 180.665 236.106 182.506 237.607 183.8 C 249.186 193.788 249.079 196.611 238.711 207.571 C 195.438 253.308 152.194 299.068 109.275 345.137 C 104.307 350.471 100.103 356.678 94.525 361.429 C 89.198 365.964 89.704 370.106 93.563 374.975 C 106.377 391.142 118.939 407.513 132.003 423.477 C 139.215 432.291 144.352 440.611 138.382 452.596 C 134.798 459.793 136.897 468.383 137.356 476.235 C 137.714 482.372 143.477 482.494 148.506 482.477 C 167.851 482.414 187.199 482.452 206.544 482.452 C 254.22 482.452 301.895 482.466 349.571 482.441 C 362.304 482.436 362.977 481.714 363.045 469.015 C 363.049 467.983 363.045 466.948 363.045 465.915 C 363.045 445.526 361.174 443.972 341.269 447.249 C 338.578 447.695 335.751 447.311 332.988 447.311 C 276.331 447.311 219.672 447.253 163.016 447.387 C 156.196 447.403 149.631 446.864 143.323 444.212" style="stroke: rgb(255, 255, 255);"/>
  <path opacity="1.000000" stroke="#000000" stroke-linecap="round" stroke-linejoin="round" stroke-width="10.000000" d="M 234.116 171.105 C 234.116 171.105 235.873 165.809 236.25 158.942 C 236.814 148.687 238.533 138.068 234.528 127.955" style="fill: rgb(186, 218, 85);"/>
</svg>