<?xml version="1.0" encoding="utf-8"?>
<svg xmlns="http://www.w3.org/2000/svg" viewBox="0 0 500 500">
  <path opacity="1.000000" stroke-linecap="round" stroke-linejoin="round" stroke-width="10.000000" d="M 134.201 435.91 C 125.911 439.133 117.268 440.012 108.323 439.488 C 98.372 438.901 93.67 443.346 94.081 452.441 C 94.535 462.476 93.078 472.579 95.227 482.468 C 101.073 485.333 107.201 485.55 113.501 485.545 C 209.242 485.479 304.981 485.503 400.721 485.498 C 419.729 485.496 421.553 483.954 421.354 466.609 C 421.256 458.113 423.098 449.396 418.176 440.62 C 405.332 437.476 390.769 441.268 377.011 435.577 C 373.702 434.207 361.981 436.759 354.53 436.756 C 288.115 436.733 228.861 438.114 162.445 435.654 C 154.999 435.378 142.933 439.065 136.789 434.73" style="stroke: rgb(255, 255, 255);"/>
  <path opacity="1.000000" stroke-linecap="round" stroke-linejoin="round" stroke-width="10.000000" d="M 380.782 435.022 C 344.783 386.435 316.647 342.022 316.905 214.758 C 250.327 210.989 196.148 216.14 198.89 216.295 C 198.673 263.563 194.758 310.372 178.195 355.622 C 170.787 375.86 160.993 395.04 147.054 412.239 C 141.485 419.111 137.389 426.391 135.495 434.73 L 380.782 435.022 Z" style="stroke: rgb(255, 255, 255);"/>
  <path opacity="1.000000" stroke-linecap="round" stroke-linejoin="round" stroke-width="9.000000" d="M 338.619 160.8 C 338.78 156.188 339.793 151.866 342.461 147.791 C 377.888 93.631 344.206 27.234 284.239 13.36 C 239.73 3.064 195.147 16.423 170.538 56.953 C 153.037 85.784 152.969 115.149 170.436 144.265 C 173.535 149.432 175.972 154.742 175.602 160.8" style="stroke: rgb(255, 255, 255);"/>
  <path opacity="1.000000" stroke-linecap="round" stroke-linejoin="round" stroke-width="11.000000" d="M 176.896 161.98 C 182.995 164.854 189.447 165.63 196.302 165.601 C 235.979 165.44 275.656 165.538 315.332 165.509 C 321.899 165.501 328.274 165.391 334.811 163.355 C 347.308 159.461 358.984 167.66 359.315 179.691 C 359.356 181.265 359.319 182.84 359.319 184.414 C 359.319 210.363 359.166 209.12 330.909 212.001 C 311.656 213.966 292.964 210.215 273.914 211.335 C 255.447 212.421 236.739 210.471 218.327 211.902 C 202.224 213.153 186.385 211.215 170.428 211.576 C 160.672 211.795 155.297 208.175 156.138 198.579 C 156.483 194.668 156.182 190.713 156.198 186.776 C 156.279 166.446 155.143 168.794 175.602 161.98" style="stroke: rgb(255, 255, 255);"/>
</svg>