<?xml version="1.0" encoding="utf-8"?>
<svg xmlns="http://www.w3.org/2000/svg" viewBox="0 0 500 500">
  <path opacity="1.000000" stroke="#000000" stroke-linecap="round" stroke-linejoin="round" stroke-width="10.000000" d="M 382.141 441.968 C 386.22 441.542 391.101 441.486 395.995 441.37 C 402.578 441.213 405.673 443.915 405.61 449.489 C 405.517 457.908 405.517 466.329 405.61 474.747 C 405.673 480.321 402.58 483.015 395.995 482.872 C 393.865 482.827 391.732 482.865 389.6 482.865 C 297.244 482.865 204.889 482.865 112.531 482.865 C 95.448 482.865 94.414 481.992 94.414 467.529 C 94.414 462.118 94.487 456.705 94.397 451.293 C 94.284 444.518 98.208 441.853 106.117 441.206 C 115.787 440.414 125.316 441.211 134.909 441.24 C 211.636 441.475 304.883 441.343 381.611 441.428" style="fill: rgb(255, 255, 255);"/>
  <path opacity="1.000000" stroke="#000000" stroke-linecap="round" stroke-linejoin="round" stroke-width="10.000000" d="M 129.581 336.732 C 127.806 356.577 126.518 376.465 124.088 396.253 C 122.352 410.377 117.703 430.561 119.99 438.664 C 122.277 446.767 382.854 439.003 382.699 439.508 L 370.568 334.921 C 374.601 328.281 122.832 327.753 129.581 336.732 Z" style="fill: rgb(255, 255, 255);"/>
  <path opacity="1.000000" stroke="#000000" stroke-linecap="round" stroke-linejoin="round" stroke-width="9.000000" d="M 398.125 293.433 C 299.732 293.433 201.336 293.433 101.696 293.845 C 97.411 304.236 99.472 314.186 98.679 324.102 C 98.163 330.548 101.718 333.232 109.334 333.198 C 121.409 333.145 133.455 333.615 145.572 333.486 C 215.182 332.743 284.812 333.123 354.433 333.123 C 356.921 333.123 359.596 332.613 361.864 333.208 C 375.427 336.772 388.183 331.65 401.574 332.174 C 402.278 324.42 403.473 317.936 403.322 311.478 C 403.049 299.679 401.178 288.31 405.146 276.191 C 417.362 238.889 427.657 201.133 438.572 163.527 C 440.281 157.641 443.942 151.839 439.411 144.716 C 428.662 145.565 421.792 145.804 415.02 151.682 C 406.195 159.343 397.593 167.663 385.259 171.47 C 382.314 172.382 383.552 174.168 382.25 175.348 C 364.837 191.126 345.559 208.141 321.576 220.613 C 316.761 217.152 313.986 213.727 311.866 209.522 C 308.11 202.078 304.968 194.408 301.094 187.013 C 294.376 174.193 291.893 160.247 282.55 147.89 C 274.124 136.746 270.991 122.805 264.759 110.372 C 261.579 104.03 258.056 97.515 249.552 93.276 C 238.51 102.917 233.834 118.21 227.51 129.214 C 221.261 140.094 215.624 151.334 209.569 162.184 C 203.941 172.271 200.3 184.096 195.587 195.089 C 191.95 203.575 188.439 212.347 179.654 220.091 C 155.447 210.583 133.893 189.247 119.676 172.672 C 115.515 172.234 110.342 169.836 107.728 168.337 C 102.331 165.239 97.49 160.998 90.952 159.572 C 77.617 156.664 74.421 149.436 67.56 143.727 C 66.004 142.432 64.759 141.007 62.376 140.764 C 58.811 148.503 59.48 155.189 61.434 161.721 C 73.404 201.735 89.457 253.791 101.489 293.79" style="fill: rgb(255, 255, 255);"/>
  <path opacity="1.000000" stroke="#000000" stroke-linecap="round" stroke-linejoin="round" stroke-width="10.000000" d="M 321.594 220.42 C 324.707 223.502 289.492 170.504 294.757 160.83 C 300.022 151.156 317.165 144.817 330.976 130.152 C 338.778 121.867 355.638 109.655 365.943 104.563 C 373.172 111.003 372.118 119.28 373.283 126.59 C 375.003 137.361 375.892 148.245 377.646 159.054 C 378.42 163.823 380.037 167.867 383.206 171.655 C 363.289 199.72 318.507 224.77 321.594 220.42 Z" style="fill: rgb(255, 255, 255);"/>
  <path opacity="1.000000" stroke="#000000" stroke-linecap="round" stroke-linejoin="round" stroke-width="10.000000" d="M 206.308 162.635 C 192.821 155.633 184.827 144.126 174.394 134.629 C 167.708 128.543 165.609 125.581 159.063 119.383 C 153.715 114.321 146.445 97.579 135.975 104.001 C 125.505 110.423 121.008 178.023 120.326 171.137 C 126.407 188.8 182.165 227.601 179.772 220.649 C 186.508 223.393 210.831 164.478 206.308 162.635 Z" style="fill: rgb(255, 255, 255);"/>
  <ellipse style="stroke: rgb(0, 0, 0); stroke-width: 7px; fill: rgb(255, 255, 255);" cx="251.926" cy="36.618" rx="31.387" ry="31.112"/>
  <line style="stroke: rgb(0, 0, 0); transform-box: fill-box; transform-origin: 50% 50%; stroke-width: 11px; fill: rgb(255, 255, 255);" x1="250.275" y1="91.668" x2="250.059" y2="67.827" transform="matrix(-1, 0, 0, -1, 0.000011, 0.000006)"/>
</svg>