<?xml version="1.0" encoding="utf-8"?>
<svg xmlns="http://www.w3.org/2000/svg" viewBox="0 0 500 500">
  <path opacity="1.000000" stroke="#000000" stroke-linecap="round" stroke-linejoin="round" stroke-width="10.000000" d="M 406.073 147.773 C 408.821 144.504 408.781 140.705 408.778 136.854 C 408.739 101.266 408.789 65.679 408.697 30.091 C 408.686 26.653 407.857 23.217 407.316 19.068 C 388.925 14.416 369.873 17.166 351.09 17.038 C 344.203 16.989 342.942 23.176 342.996 28.879 C 343.141 44.65 342.679 60.432 343.181 76.19 C 343.492 86.038 339.179 90.071 328.292 89.647 C 316.245 89.179 304.152 89.319 292.09 89.61 C 282.5 89.841 278.429 86.081 278.595 77.404 C 278.895 61.638 278.314 45.854 278.814 30.095 C 279.125 20.244 274.814 16.215 263.925 16.639 C 251.878 17.109 239.789 16.888 227.723 16.703 C 217.484 16.548 212.125 20.043 212.877 30.097 C 213.932 44.223 211.981 58.395 214.151 72.574 C 215.936 84.244 210.867 89.211 198.219 89.481 C 185.71 89.748 173.183 89.32 160.675 89.61 C 151.084 89.834 147.013 86.081 147.18 77.404 C 147.48 61.638 146.898 45.854 147.398 30.095 C 147.71 20.244 143.396 16.228 132.51 16.638 C 120.014 17.109 107.48 16.824 94.966 16.717 C 86.678 16.649 82.85 20.17 82.865 27.664 C 82.936 64.869 82.767 102.076 82.998 139.28 C 83.048 147.628 97.449 155.737 106.931 152.389 C 112.413 150.453 117.634 150.213 123.128 150.213 C 204.48 150.192 285.831 150.2 367.185 150.2 C 370.76 150.2 375.488 148.861 377.715 150.429 C 388.053 157.717 396.104 151.41 404.733 147.773" style="fill: rgb(255, 255, 255);"/>
  <path opacity="1.000000" stroke="#000000" stroke-linecap="round" stroke-linejoin="round" stroke-width="10.000000" d="M 118.509 438.281 C 107.755 440.043 97.747 439.086 86.923 438.801 C 76.04 438.517 71.462 442.443 72.068 452.296 C 72.565 460.358 72.263 468.467 72.144 476.556 C 72.03 484.049 75.952 487.673 84.24 487.484 C 86.917 487.423 89.604 487.474 92.286 487.474 C 194.2 487.474 296.113 487.468 398.028 487.481 C 404.642 487.484 411.317 488.01 418.166 484.297 C 420.355 470.724 420.071 456.362 418.354 442.085 C 412.27 439.013 405.789 439.438 399.385 438.807 C 370.291 435.936 341.272 439.764 312.199 439.088 C 283.612 438.427 254.987 438.945 226.382 438.945 C 197.328 438.945 168.272 438.945 139.22 438.945 C 132.672 438.945 125.98 438.971 120.444 438.281" style="fill: rgb(255, 255, 255);"/>
  <path opacity="1.000000" stroke="#000000" stroke-linecap="round" stroke-linejoin="round" stroke-width="10.000000" d="M 118.667 438.326 L 151.707 203.194 C 151.707 203.194 343.239 194.595 341.707 203.582 C 340.175 212.569 343.156 222.762 343.632 232.623 C 345.611 273.625 355.591 307.272 359.226 340.665 C 362.283 368.744 367.066 394.818 371.323 422.75 C 371.8 425.87 371.652 430.858 371.208 434.092 C 369.662 440.306 117.277 436.767 118.667 438.326 Z" style="fill: rgb(255, 255, 255);"/>
  <path opacity="1.000000" stroke="#000000" stroke-linecap="round" stroke-linejoin="round" stroke-width="10.000000" d="M 384.238 153.588 C 384.238 163.893 383.842 174.218 384.35 184.5 C 384.863 194.96 380.423 198.997 369.711 198.821 C 349.915 198.494 330.183 200.427 310.277 198.981 C 291.018 197.578 271.57 198.677 252.206 198.677 C 225.358 198.677 198.406 197.282 171.703 199.188 C 155.211 200.367 139.096 198.452 122.813 198.71 C 116.688 198.806 110.671 198.655 104.82 195.691 C 99.02 181.728 103.167 159.907 103.007 152.299 C 102.847 144.691 384.107 150.385 384.238 153.588 Z" style="fill: rgb(255, 255, 255);"/>
</svg>